<svg width="96" height="96" xmlns="http://www.w3.org/2000/svg" xmlns:xlink="http://www.w3.org/1999/xlink" overflow="hidden"><defs><clipPath id="clip0"><rect x="228" y="450" width="96" height="96"/></clipPath></defs><g clip-path="url(#clip0)" transform="translate(-228 -450)"><path d="M306.8 471.39 310.361 467.855C311.136 467.174 311.212 465.994 310.531 465.219 310.493 465.175 310.452 465.133 310.41 465.093L306.91 461.593C306.152 460.817 304.908 460.802 304.131 461.561 304.12 461.571 304.11 461.582 304.099 461.593L300.538 465.128Z" fill="#FFFFFF"/><path d="M294.002 510.5 294.002 507.5 286.502 507.5 286.502 518.5 285.002 518.5 285.002 521.5 304.502 521.5 304.502 486.5 296.061 486.5 293.061 489.5 301.502 489.5 301.502 498.5 286 498.5 286 501.5 301.502 501.5 301.502 507.5 299.002 507.5 299.002 510.5 301.502 510.5 301.502 518.5 289.502 518.5 289.502 510.5 294.002 510.5Z" fill="#FFFFFF"/><path d="M309.561 473 303.561 479 311 479 311 528 252.475 528C252.707 527.354 252.863 526.682 252.941 526L253 525 253 479 282.48 479 288.469 473 253 473 253 472C253 467.029 248.971 463 244 463 239.029 463 235 467.029 235 472L235 525 235.059 526C235.557 530.382 239.154 533.759 243.559 533.978L243.559 534 317 534 317 473ZM244 528C242.343 528 241 526.657 241 525 241 523.343 242.343 522 244 522 245.657 522 247 523.343 247 525 247 526.657 245.657 528 244 528ZM247 516.525C245.061 515.825 242.939 515.825 241 516.525L241 472C241 470.343 242.343 469 244 469 245.657 469 247 470.343 247 472Z" fill="#FFFFFF"/><path d="M272.001 489.5 274.995 486.5 259.5 486.5 259.5 521.5 279.002 521.5 279.002 518.5 277.502 518.5 277.502 507.5 270.002 507.5 270.002 510.5 274.502 510.5 274.502 518.5 262.5 518.5 262.5 510.5 265.002 510.5 265.002 507.5 262.5 507.5 262.5 501.5 268.011 501.5 269.006 498.5 262.5 498.5 262.5 489.5 272.001 489.5Z" fill="#FFFFFF"/><path d="M299.14 466.554 274.609 491.133 271.5 500.5 280.92 497.393 305.45 472.862ZM279.886 495.67 275.694 497.052 274.955 496.312 276.335 492.12C277.337 491.172 278.911 491.194 279.886 492.169 280.853 493.108 280.875 494.652 279.937 495.619 279.92 495.637 279.903 495.653 279.886 495.67Z" fill="#FFFFFF"/></g></svg>